<svg width="262" height="60" viewBox="0 0 262 60" fill="none" xmlns="http://www.w3.org/2000/svg">
<path d="M119.6 44H112.76L101.32 26.68V44H94.48V15.92H101.32L112.76 33.32V15.92H119.6V44ZM145.598 32.48C145.598 33.12 145.558 33.7867 145.478 34.48H129.998C130.105 35.8667 130.545 36.9333 131.318 37.68C132.118 38.4 133.091 38.76 134.238 38.76C135.945 38.76 137.131 38.04 137.798 36.6H145.078C144.705 38.0667 144.025 39.3867 143.038 40.56C142.078 41.7333 140.865 42.6533 139.398 43.32C137.931 43.9867 136.291 44.32 134.478 44.32C132.291 44.32 130.345 43.8533 128.638 42.92C126.931 41.9867 125.598 40.6533 124.638 38.92C123.678 37.1867 123.198 35.16 123.198 32.84C123.198 30.52 123.665 28.4933 124.598 26.76C125.558 25.0267 126.891 23.6933 128.598 22.76C130.305 21.8267 132.265 21.36 134.478 21.36C136.638 21.36 138.558 21.8133 140.238 22.72C141.918 23.6267 143.225 24.92 144.158 26.6C145.118 28.28 145.598 30.24 145.598 32.48ZM138.598 30.68C138.598 29.5067 138.198 28.5733 137.398 27.88C136.598 27.1867 135.598 26.84 134.398 26.84C133.251 26.84 132.278 27.1733 131.478 27.84C130.705 28.5067 130.225 29.4533 130.038 30.68H138.598ZM162.407 44L158.127 37.8L154.527 44H147.127L154.487 32.6L146.927 21.68H154.607L158.887 27.84L162.487 21.68H169.887L162.407 32.92L170.087 44H162.407ZM176.162 19.36C174.962 19.36 173.976 19.0133 173.202 18.32C172.456 17.6 172.082 16.72 172.082 15.68C172.082 14.6133 172.456 13.7333 173.202 13.04C173.976 12.32 174.962 11.96 176.162 11.96C177.336 11.96 178.296 12.32 179.042 13.04C179.816 13.7333 180.202 14.6133 180.202 15.68C180.202 16.72 179.816 17.6 179.042 18.32C178.296 19.0133 177.336 19.36 176.162 19.36ZM179.562 21.68V44H172.722V21.68H179.562ZM191.359 24.84C192.026 23.8 192.946 22.96 194.119 22.32C195.292 21.68 196.666 21.36 198.239 21.36C200.079 21.36 201.746 21.8267 203.239 22.76C204.732 23.6933 205.906 25.0267 206.759 26.76C207.639 28.4933 208.079 30.5067 208.079 32.8C208.079 35.0933 207.639 37.12 206.759 38.88C205.906 40.6133 204.732 41.96 203.239 42.92C201.746 43.8533 200.079 44.32 198.239 44.32C196.692 44.32 195.319 44 194.119 43.36C192.946 42.72 192.026 41.8933 191.359 40.88V54.64H184.519V21.68H191.359V24.84ZM201.119 32.8C201.119 31.0933 200.639 29.76 199.679 28.8C198.746 27.8133 197.586 27.32 196.199 27.32C194.839 27.32 193.679 27.8133 192.719 28.8C191.786 29.7867 191.319 31.1333 191.319 32.84C191.319 34.5467 191.786 35.8933 192.719 36.88C193.679 37.8667 194.839 38.36 196.199 38.36C197.559 38.36 198.719 37.8667 199.679 36.88C200.639 35.8667 201.119 34.5067 201.119 32.8ZM225.388 21.44C227.948 21.44 230.001 22.2933 231.548 24C233.094 25.68 233.868 28 233.868 30.96V44H227.068V31.88C227.068 30.3867 226.681 29.2267 225.908 28.4C225.134 27.5733 224.094 27.16 222.788 27.16C221.481 27.16 220.441 27.5733 219.668 28.4C218.894 29.2267 218.508 30.3867 218.508 31.88V44H211.668V14.4H218.508V24.68C219.201 23.6933 220.148 22.9067 221.348 22.32C222.548 21.7333 223.894 21.44 225.388 21.44ZM261.421 21.68L247.421 54.6H240.061L245.181 43.24L236.101 21.68H243.741L248.901 35.64L254.021 21.68H261.421Z" fill="white"/>
<path d="M2 44L40.1677 11.4084C40.8167 10.8542 41.8171 11.3154 41.8171 12.1689V37.2657C41.8171 38.1361 42.852 38.591 43.4933 38.0024L74 10M2 26.7213L21.3397 44" stroke="#C5FF15" stroke-width="6"/>
</svg>
